# xmcd
#
# Track frame offsets:
#	150
#	11829
#	24660
#	34624
#	43714
#	57766
#	70402
#	79693
#	91926
#	102878
#	114865
#	125764
#	136341
#	147225
#	157842
#	169220
#	179900
#	190289
#	201830
#	213844
#	223502
#	232428
#
# Disc length: 3253 seconds
#
# Revision: 1
# Processed by: cddbd v1.5.1PL0 Copyright (c) Steve Scherf et al.
# Submitted via: audiograbber 1.82.02
#
DISCID=410cb316
DTITLE=Hank Snow - The Hank Snow Collection CD 12
DYEAR=1900
DGENRE=Country
TTITLE0=In Daddy's Footsteps
TTITLE1=Christmas Roses
TTITLE2=Reindeer Boogie
TTITLE3=Frosty The Snowman
TTITLE4=Silent Night
TTITLE5=My Mother
TTITLE6=Love's Calling From The Mountains
TTITLE7=My Life With You
TTITLE8=Born To Loose
TTITLE9=It's Been So Long Darling
TTITLE10=I'm Hurt All Over
TTITLE11=My Memory
TTITLE12=The Party Of The Second Part
TTITLE13=Marriage And Divorce
TTITLE14=Unfaithfull
TTITLE15=My Arms Are A House
TTITLE16=I Traded Love
TTITLE17=Two Won't Care
TTITLE18=These Hands
TTITLE19=Reminising
TTITLE20=Spanish Two Step
TTITLE21=I'm Movin In
EXTD=
EXTT0=
EXTT1=
EXTT2=
EXTT3=
EXTT4=
EXTT5=
EXTT6=
EXTT7=
EXTT8=
EXTT9=
EXTT10=
EXTT11=
EXTT12=
EXTT13=
EXTT14=
EXTT15=
EXTT16=
EXTT17=
EXTT18=
EXTT19=
EXTT20=
EXTT21=
PLAYORDER=
